# This file uses centimeters as units for non-parametric coordinates.

mtllib Backdrop01.mtl
g default
v 8.729287 0.000000 3.759612
v 8.729287 0.000000 -14.171413
v -3.718036 8.695355 3.759612
v -3.718036 8.695355 -14.171413
v -2.848588 0.000000 3.759612
v -3.283312 0.116484 3.759612
v -3.601552 0.434724 3.759612
v -3.718036 0.869449 3.759612
v -3.718036 0.869449 -14.171413
v -3.601552 0.434724 -14.171413
v -3.283312 0.116484 -14.171413
v -2.848588 0.000000 -14.171413
vt 1.000000 0.099990
vt 1.000000 1.000000
vt 0.000000 1.000000
vt 0.069850 0.000000
vt 1.000000 0.000000
vt 1.000000 1.000000
vt 0.000000 0.099989
vt 0.069850 1.000000
vt 0.049684 0.000000
vt 0.000000 0.000000
vt 0.000000 1.000000
vt 0.049684 1.000000
vn 0.009696 0.999953 0.000000
vn 0.009696 0.999953 0.000000
vn 0.000000 1.000000 0.000000
vn 0.000000 1.000000 0.000000
vn 0.999901 0.014100 0.000000
vn 0.999901 0.014100 0.000000
vn 1.000000 0.000000 0.000000
vn 1.000000 0.000000 0.000000
vn 0.965926 0.258818 0.000000
vn 0.965926 0.258818 0.000000
vn 0.707106 0.707107 0.000000
vn 0.500000 0.866026 0.000000
vn 0.500000 0.866026 0.000000
vn 0.707106 0.707107 0.000000
s 1
g Backdrop01
usemtl _metal
f 12/8/1 5/4/2 1/5/3 2/6/4
s 2
f 8/7/5 9/1/6 4/2/7 3/3/8
f 8/7/5 7/10/9 10/11/10 9/1/6
s 1
f 7/10/11 6/9/12 11/12/13 10/11/14
f 6/9/12 5/4/2 12/8/1 11/12/13
