# This file uses centimeters as units for non-parametric coordinates.

mtllib RocketTopB1.mtl
g default
v -0.869945 0.000000 -12.686878
v -0.869945 0.000000 -13.101091
v -1.162838 0.000000 -12.393985
v -1.162838 0.000000 -13.393985
v -1.577052 0.000000 -12.393985
v -1.577052 0.000000 -13.393985
v -1.869945 0.000000 -12.686878
v -1.869945 0.000000 -13.101091
v -1.188727 0.250000 -12.456485
v -1.551163 0.250000 -12.456485
v -0.932445 0.250000 -12.712767
v -0.932445 0.250000 -13.075203
v -1.188727 0.250000 -13.331485
v -1.551163 0.250000 -13.331485
v -1.807445 0.250000 -13.075203
v -1.807445 0.250000 -12.712767
v -1.318168 1.369762 -13.018985
v -1.318168 1.369762 -12.945762
v -1.421722 1.369762 -13.018985
v -1.421722 1.369762 -12.945762
v -1.494945 1.369762 -12.945762
v -1.421722 1.369762 -12.842208
v -1.421722 1.369762 -12.768985
v -1.494945 1.369762 -12.842208
v -1.318168 1.369762 -12.768985
v -1.244945 1.369762 -12.842208
v -1.244945 1.369762 -12.945762
v -1.318168 1.369762 -12.842208
v -1.494945 1.269762 -12.945762
v -1.494945 1.269762 -12.842208
v -1.421722 1.269762 -12.768985
v -1.318168 1.269762 -12.768985
v -1.244945 1.269762 -12.842208
v -1.244945 1.269762 -12.945762
v -1.318168 1.269762 -13.018985
v -1.421722 1.269762 -13.018985
v -1.344057 1.769762 -12.919873
v -1.344057 1.769762 -12.868096
v -1.395833 1.769762 -12.919873
v -1.395833 1.769762 -12.868096
v -1.369945 0.000000 -12.893984
v -1.014543 0.989762 -13.041197
v -1.014543 0.989762 -12.746773
v -1.222733 0.989762 -12.538583
v -1.517157 0.989762 -12.538583
v -1.725347 0.989762 -12.746773
v -1.725347 0.989762 -13.041197
v -1.517157 0.989762 -13.249387
v -1.222733 0.989762 -13.249387
v -0.967473 0.458542 -13.060694
v -0.967473 0.458542 -12.727276
v -1.203236 0.458542 -12.491513
v -1.536654 0.458542 -12.491513
v -1.772417 0.458542 -12.727276
v -1.772417 0.458542 -13.060694
v -1.536654 0.458542 -13.296456
v -1.203236 0.458542 -13.296456
vt 19.685040 8.153811
vt 19.685040 -8.153811
vt 8.153811 19.685040
vt 8.153811 -19.685040
vt -8.153811 19.685040
vt -8.153811 -19.685040
vt -19.685040 8.153811
vt -19.685040 -8.153811
vt 8.153811 -4.774323
vt -8.153811 -4.774323
vt 7.134584 5.371114
vt -7.134584 5.371114
vt -2.038453 -4.921260
vt -2.038453 -2.038453
vt 2.038453 -4.921260
vt 2.038453 -2.038453
vt 4.921260 -2.038453
vt 2.038453 2.038453
vt 2.038453 4.921260
vt 4.921260 2.038453
vt -2.038453 4.921260
vt -4.921260 2.038453
vt -4.921260 -2.038453
vt -2.038453 2.038453
vt -2.038453 23.622049
vt -2.038453 27.559059
vt 2.038453 23.622049
vt 2.038453 27.559059
vt -1.019226 -1.019226
vt -1.019226 1.019226
vt 1.019226 -1.019226
vt 1.019226 1.019226
vt 2.038453 27.369860
vt -2.038453 27.369860
vt 1.019226 43.150841
vt -1.019226 43.150841
vt 7.134584 -4.129822
vt -7.134584 -4.129822
vt 2.038453 14.342940
vt -2.038453 14.342940
vt -7.134584 5.371114
vt 8.153811 -4.774323
vt 7.134584 5.371114
vt -8.153811 -4.774323
vt 7.134584 5.371114
vt -8.153811 -4.774323
vt 8.153811 -4.774323
vt -7.134584 5.371114
vt 7.134584 5.371114
vt -8.153811 -4.774323
vt 8.153811 -4.774323
vt -7.134584 5.371114
vt 7.134584 5.371114
vt -8.153811 -4.774323
vt 8.153811 -4.774323
vt -7.134584 5.371114
vt 8.153811 -4.774323
vt -7.134584 5.371114
vt -8.153811 -4.774323
vt 7.134584 5.371114
vt 8.153811 -4.774323
vt -7.134584 5.371114
vt -8.153811 -4.774323
vt 7.134584 5.371114
vt -8.153811 -4.774323
vt 7.134584 5.371114
vt -7.134584 5.371114
vt 8.153811 -4.774323
vt 2.038453 23.622049
vt -2.038453 27.559059
vt -2.038453 23.622049
vt 2.038453 27.559059
vt 2.038453 27.559059
vt -2.038453 23.622049
vt 2.038453 23.622049
vt -2.038453 27.559059
vt -2.038453 27.559059
vt 2.038453 23.622049
vt 2.038453 27.559059
vt -2.038453 23.622049
vt -2.038453 27.559059
vt 2.038453 23.622049
vt 2.038453 27.559059
vt -2.038453 23.622049
vt -2.038453 27.559059
vt 2.038453 23.622049
vt 2.038453 27.559059
vt -2.038453 23.622049
vt 2.038453 27.559059
vt -2.038453 23.622049
vt 2.038453 23.622049
vt -2.038453 27.559059
vt 2.038453 23.622049
vt -2.038453 27.559059
vt -2.038453 23.622049
vt 2.038453 27.559059
vt 1.019226 43.150841
vt -2.038453 27.369860
vt 2.038453 27.369860
vt -1.019226 43.150841
vt 2.038453 27.369860
vt -1.019226 43.150841
vt -2.038453 27.369860
vt 1.019226 43.150841
vt 1.019226 43.150841
vt -2.038453 27.369860
vt 2.038453 27.369860
vt -1.019226 43.150841
vt -8.153811 -4.774323
vt 8.153811 -4.774323
vt -8.153811 -4.774323
vt 8.153811 -4.774323
vt 8.153811 -4.774323
vt -8.153811 -4.774323
vt 8.153811 -4.774323
vt 8.153811 -4.774323
vt -8.153811 -4.774323
vt 8.153811 -4.774323
vt 7.134584 -4.129822
vt -2.038453 14.342940
vt -7.134584 -4.129822
vt 2.038453 14.342940
vt 2.038453 14.342940
vt -7.134584 -4.129822
vt 7.134584 -4.129822
vt -2.038453 14.342940
vt -7.134584 -4.129822
vt 2.038453 14.342940
vt -2.038453 14.342940
vt 7.134584 -4.129822
vt 2.038453 14.342940
vt -7.134584 -4.129822
vt 7.134584 -4.129822
vt -2.038453 14.342940
vt -2.038453 14.342940
vt 7.134584 -4.129822
vt 2.038453 14.342940
vt -7.134584 -4.129822
vt 7.134584 -4.129822
vt -2.038453 14.342940
vt -7.134584 -4.129822
vt 2.038453 14.342940
vt 2.038453 14.342940
vt -7.134584 -4.129822
vt 7.134584 -4.129822
vt -2.038453 14.342940
vt 0.000000 0.000000
vt 6.115358 -0.435269
vt -6.115358 -0.435269
vt -6.115358 -0.435270
vt 6.115358 -0.435270
vt 6.115358 -0.435269
vt -6.115358 -0.435269
vt -6.115358 -0.435270
vt 6.115358 -0.435270
vt 6.115358 -0.435269
vt -6.115358 -0.435269
vt -6.115358 -0.435270
vt 6.115358 -0.435270
vt 6.115358 -0.435269
vt -6.115358 -0.435269
vt -6.115358 -0.435270
vt 6.115358 -0.435270
vt 6.847260 -3.088313
vt -6.847260 -3.088313
vt -6.847260 -3.088313
vt 6.847260 -3.088313
vt 6.847260 -3.088313
vt -6.847260 -3.088313
vt -6.847260 -3.088313
vt 6.847260 -3.088313
vt 6.847260 -3.088313
vt -6.847260 -3.088313
vt -6.847260 -3.088313
vt 6.847260 -3.088313
vt 6.847260 -3.088313
vt -6.847260 -3.088313
vt -6.847260 -3.088313
vt 6.847260 -3.088313
vn 0.000000 -1.000000 0.000000
vn 0.000000 -1.000000 0.000000
vn 0.000000 -1.000000 0.000000
vn 0.000000 0.242536 0.970142
vn 0.000000 0.242536 0.970142
vn 0.000000 0.242536 0.970142
vn 0.000000 0.242536 0.970142
vn 0.685994 0.242536 0.685994
vn 0.685994 0.242536 0.685994
vn 0.685994 0.242536 0.685994
vn 0.685994 0.242536 0.685994
vn 0.970142 0.242536 0.000000
vn 0.970142 0.242536 0.000000
vn 0.970142 0.242536 0.000000
vn 0.970142 0.242536 0.000000
vn 0.685994 0.242536 -0.685994
vn 0.685994 0.242536 -0.685994
vn 0.685994 0.242536 -0.685994
vn 0.685994 0.242536 -0.685994
vn 0.000000 0.242536 -0.970142
vn 0.000000 0.242536 -0.970142
vn 0.000000 0.242536 -0.970142
vn 0.000000 0.242536 -0.970142
vn -0.685994 0.242536 -0.685994
vn -0.685994 0.242536 -0.685994
vn -0.685994 0.242536 -0.685994
vn -0.685994 0.242536 -0.685994
vn -0.970142 0.242536 0.000000
vn -0.970142 0.242536 0.000000
vn -0.970142 0.242536 0.000000
vn -0.970142 0.242536 0.000000
vn -0.685994 0.242536 0.685994
vn -0.685994 0.242536 0.685994
vn -0.685994 0.242536 0.685994
vn -0.685994 0.242536 0.685994
vn 0.000000 1.000000 0.000000
vn 0.000000 1.000000 0.000000
vn 0.000000 1.000000 0.000000
vn 0.000000 1.000000 0.000000
vn 0.000000 1.000000 0.000000
vn 0.000000 1.000000 0.000000
vn 0.000000 1.000000 0.000000
vn 0.000000 1.000000 0.000000
vn 0.000000 1.000000 0.000000
vn 0.000000 1.000000 0.000000
vn 0.000000 1.000000 0.000000
vn 0.000000 1.000000 0.000000
vn 0.000000 1.000000 0.000000
vn 0.000000 1.000000 0.000000
vn -1.000000 0.000000 0.000000
vn -1.000000 0.000000 0.000000
vn -1.000000 0.000000 0.000000
vn -1.000000 0.000000 0.000000
vn -0.707107 0.000000 0.707107
vn -0.707107 0.000000 0.707107
vn -0.707107 0.000000 0.707107
vn -0.707107 0.000000 0.707107
vn 0.000000 0.000000 1.000000
vn 0.000000 0.000000 1.000000
vn 0.000000 0.000000 1.000000
vn 0.000000 0.000000 1.000000
vn 0.707107 0.000000 0.707107
vn 0.707107 0.000000 0.707107
vn 0.707107 0.000000 0.707107
vn 0.707107 0.000000 0.707107
vn 1.000000 0.000000 0.000000
vn 1.000000 0.000000 0.000000
vn 1.000000 0.000000 0.000000
vn 1.000000 0.000000 0.000000
vn 0.707107 0.000000 -0.707107
vn 0.707107 0.000000 -0.707107
vn 0.707107 0.000000 -0.707107
vn 0.707107 0.000000 -0.707107
vn 0.000000 0.000000 -1.000000
vn 0.000000 0.000000 -1.000000
vn 0.000000 0.000000 -1.000000
vn 0.000000 0.000000 -1.000000
vn -0.707107 0.000000 -0.707107
vn -0.707107 0.000000 -0.707107
vn -0.707107 0.000000 -0.707107
vn -0.707107 0.000000 -0.707107
vn 0.000000 1.000000 0.000000
vn 0.000000 1.000000 0.000000
vn 0.000000 1.000000 0.000000
vn 0.000000 1.000000 0.000000
vn 0.000000 0.064586 -0.997912
vn 0.000000 0.064586 -0.997912
vn 0.000000 0.064586 -0.997912
vn 0.000000 0.064586 -0.997912
vn 0.997912 0.064586 0.000000
vn 0.997912 0.064586 0.000000
vn 0.997912 0.064586 0.000000
vn 0.997912 0.064586 0.000000
vn -0.997912 0.064586 0.000000
vn -0.997912 0.064586 0.000000
vn -0.997912 0.064586 0.000000
vn -0.997912 0.064586 0.000000
vn 0.000000 0.064586 0.997912
vn 0.000000 0.064586 0.997912
vn 0.000000 0.064586 0.997912
vn 0.000000 0.064586 0.997912
vn 0.000000 1.000000 0.000000
vn 0.000000 1.000000 0.000000
vn 0.000000 1.000000 0.000000
vn 0.000000 1.000000 0.000000
vn 0.000000 1.000000 0.000000
vn 0.000000 1.000000 0.000000
vn 0.000000 1.000000 0.000000
vn 0.000000 1.000000 0.000000
vn 0.000000 1.000000 0.000000
vn 0.000000 1.000000 0.000000
vn 0.000000 1.000000 0.000000
vn 0.000000 1.000000 0.000000
vn 0.000000 1.000000 0.000000
vn 0.000000 1.000000 0.000000
vn 0.000000 1.000000 0.000000
vn 0.000000 1.000000 0.000000
vn 0.000000 1.000000 0.000000
vn 0.000000 1.000000 0.000000
vn 0.745938 0.666016 0.000000
vn 0.745938 0.666016 0.000000
vn 0.993588 0.113062 0.000000
vn 0.993588 0.113062 0.000000
vn -0.993588 0.113063 -0.000000
vn -0.993588 0.113063 -0.000000
vn -0.745938 0.666016 0.000000
vn -0.745938 0.666016 0.000000
vn 0.000000 0.666016 -0.745938
vn 0.000000 0.666016 -0.745938
vn 0.000000 0.113063 -0.993588
vn 0.000000 0.113063 -0.993588
vn -0.702574 0.113062 -0.702572
vn -0.702574 0.113062 -0.702572
vn -0.527458 0.666016 -0.527458
vn -0.527458 0.666016 -0.527458
vn 0.000000 0.666016 0.745938
vn 0.000000 0.666016 0.745938
vn 0.000002 0.113063 0.993588
vn 0.000002 0.113063 0.993588
vn -0.527458 0.666016 0.527458
vn -0.702573 0.113062 0.702572
vn -0.702573 0.113062 0.702572
vn -0.527458 0.666016 0.527458
vn 0.702572 0.113063 -0.702573
vn 0.702572 0.113063 -0.702573
vn 0.527458 0.666016 -0.527458
vn 0.527458 0.666016 -0.527458
vn 0.527458 0.666016 0.527458
vn 0.527458 0.666016 0.527458
vn 0.702571 0.113063 0.702574
vn 0.702571 0.113063 0.702574
vn 0.000000 1.000000 0.000000
vn 0.000000 1.000000 0.000000
vn 0.000000 1.000000 0.000000
vn 0.000000 1.000000 0.000000
vn 0.000000 1.000000 0.000000
vn 0.000000 1.000000 0.000000
vn 0.000000 -1.000000 0.000000
vn 0.000000 -1.000000 0.000000
vn 0.000000 -1.000000 0.000000
vn 0.000000 -1.000000 0.000000
vn 0.000000 -1.000000 0.000000
vn 0.000000 -1.000000 0.000000
vn 0.971031 0.238952 0.000000
vn 0.971031 0.238952 0.000000
vn 0.745938 0.666016 0.000000
vn 0.745938 0.666016 0.000000
vn 0.686622 0.238952 0.686624
vn 0.686622 0.238952 0.686624
vn 0.527458 0.666016 0.527458
vn 0.527458 0.666016 0.527458
vn 0.000002 0.238952 0.971031
vn 0.000002 0.238952 0.971031
vn 0.000000 0.666016 0.745938
vn 0.000000 0.666016 0.745938
vn -0.686624 0.238951 0.686622
vn -0.686624 0.238951 0.686622
vn -0.527458 0.666016 0.527458
vn -0.527458 0.666016 0.527458
vn -0.745938 0.666016 0.000000
vn -0.971031 0.238953 -0.000000
vn -0.971031 0.238953 -0.000000
vn -0.745938 0.666016 0.000000
vn -0.527458 0.666016 -0.527458
vn -0.527458 0.666016 -0.527458
vn -0.686624 0.238951 -0.686622
vn -0.686624 0.238951 -0.686622
vn 0.000000 0.238952 -0.971031
vn 0.000000 0.238952 -0.971031
vn 0.000000 0.666016 -0.745938
vn 0.000000 0.666016 -0.745938
vn 0.527458 0.666016 -0.527458
vn 0.686623 0.238951 -0.686623
vn 0.686623 0.238952 -0.686623
vn 0.527458 0.666016 -0.527458
s 1
g rocket_topB RocketTopB1
usemtl _metalRed14
f 5/5/1 41/147/2 3/3/3
s off
f 5/10/4 3/9/5 9/11/6 10/12/7
f 1/42/8 11/43/9 9/41/10 3/44/11
f 1/46/12 2/47/13 12/45/14 11/48/15
f 2/50/16 4/51/17 13/49/18 12/52/19
f 4/54/20 6/55/21 14/53/22 13/56/23
f 14/58/24 6/59/25 8/57/26 15/60/27
f 15/62/28 8/63/29 7/61/30 16/64/31
f 10/66/32 16/67/33 7/65/34 5/68/35
f 18/14/36 17/13/37 19/15/38 20/16/39
s 2
f 22/18/40 24/20/41 23/19/42
s 3
f 18/14/43 27/23/44 17/13/45
s off
f 22/18/46 23/19/47 25/21/48 28/24/49
f 21/26/50 29/25/51 30/27/52 24/28/53
f 24/70/54 30/71/55 31/69/56 23/72/57
f 31/74/58 32/75/59 25/73/60 23/76/61
f 33/78/62 26/79/63 25/77/64 32/80/65
f 34/82/66 27/83/67 26/81/68 33/84/69
f 35/86/70 17/87/71 27/85/72 34/88/73
f 35/90/74 36/91/75 19/89/76 17/92/77
f 19/94/78 36/95/79 29/93/80 21/96/81
f 38/30/82 37/29/83 39/31/84 40/32/85
f 18/34/86 20/33/87 39/35/88 37/36/89
f 28/98/90 18/99/91 37/97/92 38/100/93
f 39/102/94 20/103/95 22/101/96 40/104/97
f 22/106/98 28/107/99 38/105/100 40/108/101
usemtl __defaultMat
f 13/49/102 11/109/103 12/110/104
f 11/43/105 13/111/106 9/112/107
f 9/11/108 13/111/109 14/113/110
f 9/11/111 14/114/112 10/115/113
f 10/66/114 14/114/115 15/116/116
f 10/66/117 15/117/118 16/118/119
s 4
usemtl _metal18
f 11/38/120 12/37/121 50/164/122 51/166/123
s 5
f 54/172/124 55/174/125 15/121/126 16/119/127
s 6
f 13/124/128 14/125/129 56/176/130 57/178/131
s 7
f 55/175/132 56/177/133 14/127/134 15/130/135
s 8
f 10/132/136 9/133/137 52/168/138 53/170/139
s 9
f 10/136/140 53/171/141 54/173/142 16/138/143
s 10
f 57/179/144 50/165/145 12/141/146 13/139/147
s 11
f 9/144/148 11/145/149 51/167/150 52/169/151
s 2
usemtl _metalRed14
f 20/16/152 19/15/153 21/17/154
f 20/16/152 21/17/154 24/20/41 22/18/40
s 3
f 25/21/155 26/22/156 28/24/157
f 28/24/157 26/22/156 27/23/44 18/14/43
s 1
f 6/6/158 4/4/159 41/147/2
f 41/147/2 4/4/159 2/2/160
f 41/147/2 2/2/160 1/1/161
f 41/147/2 1/1/161 3/3/3
f 7/7/162 41/147/2 5/5/1
f 8/8/163 41/147/2 7/7/162
f 6/6/158 41/147/2 8/8/163
s 4
usemtl _metal18
f 43/150/164 42/148/165 34/39/166 33/40/167
s 11
f 44/153/168 43/151/169 33/143/170 32/146/171
s 8
f 45/154/172 44/152/173 32/131/174 31/134/175
s 9
f 46/157/176 45/155/177 31/137/178 30/135/179
s 5
f 29/120/180 47/158/181 46/156/182 30/122/183
s 7
f 29/128/184 36/129/185 48/161/186 47/159/187
s 6
f 49/162/188 48/160/189 36/123/190 35/126/191
s 10
f 34/140/192 42/149/193 49/163/194 35/142/195
s 4
f 51/166/123 50/164/122 42/148/165 43/150/164
s 11
f 52/169/151 51/167/150 43/151/169 44/153/168
s 8
f 53/170/139 52/168/138 44/152/173 45/154/172
s 9
f 54/173/142 53/171/141 45/155/177 46/157/176
s 5
f 46/156/182 47/158/181 55/174/125 54/172/124
s 7
f 47/159/187 48/161/186 56/177/133 55/175/132
s 6
f 57/178/131 56/176/130 48/160/189 49/162/188
s 10
f 49/163/194 42/149/193 50/165/145 57/179/144
